<?xml version="1.0" encoding="utf-8"?>
<!-- Generator: Adobe Illustrator 21.1.0, SVG Export Plug-In . SVG Version: 6.00 Build 0)  -->
<svg version="1.1" id="Layer_1" xmlns="http://www.w3.org/2000/svg" xmlns:xlink="http://www.w3.org/1999/xlink" x="0px" y="0px"
	 viewBox="0 0 1366 768" style="enable-background:new 0 0 1366 768;" xml:space="preserve">
<image style="overflow:visible;enable-background:new    ;" width="200" height="200" xlink:href="ga2.jpg"  transform="matrix(0.7071 0.7071 -0.7071 0.7071 381.25 90.5786)">
</image>
<image style="overflow:visible;enable-background:new    ;" width="200" height="200" xlink:href="gal2.jpg"  transform="matrix(-0.7071 0.7071 -0.7071 -0.7071 824.4214 232)">
</image>
<image style="overflow:visible;enable-background:new    ;" width="200" height="200" xlink:href="gal3jpg"  transform="matrix(0.7071 -0.7071 0.7071 0.7071 843.3286 232)">
</image>
<image style="overflow:visible;enable-background:new    ;" width="200" height="200" xlink:href="gal4.jpg"  transform="matrix(0.7071 -0.7071 0.7071 0.7071 390.8286 384)">
</image>
<image style="overflow:visible;enable-background:new    ;" width="200" height="200" xlink:href="gal5.jpg"  transform="matrix(0.7071 -0.7071 0.7071 0.7071 692.8286 384)">
</image>
<image style="overflow:visible;enable-background:new    ;" width="200" height="200" xlink:href="gal7.jpg"  transform="matrix(0.7071 -0.7071 0.7071 0.7071 239.8286 536)">
</image>
<image style="overflow:visible;enable-background:new    ;" width="200" height="200" xlink:href="gal8.jpg"  transform="matrix(0.7071 -0.7071 0.7071 0.7071 541.5786 536)">
</image>
<image style="overflow:visible;enable-background:new    ;" width="200" height="200" xlink:href="gal9.jpg"  transform="matrix(0.7071 -0.7071 0.7071 0.7071 843.3286 536)">
</image>
</svg>
